<?xml version="1.0" encoding="UTF-8" standalone="no"?>
<!-- Created with Inkscape (http://www.inkscape.org/) -->

<svg
   version="1.1"
   id="svg1"
   width="352"
   height="354"
   viewBox="0 0 352 354"
   sodipodi:docname="favicon.svg"
   inkscape:version="1.3.1 (9b9bdc1480, 2023-11-25, custom)"
   xmlns:inkscape="http://www.inkscape.org/namespaces/inkscape"
   xmlns:sodipodi="http://sodipodi.sourceforge.net/DTD/sodipodi-0.dtd"
   xmlns="http://www.w3.org/2000/svg"
   xmlns:svg="http://www.w3.org/2000/svg">
  <defs
     id="defs1" />
  <sodipodi:namedview
     id="namedview1"
     pagecolor="#ffffff"
     bordercolor="#000000"
     borderopacity="0.25"
     inkscape:showpageshadow="2"
     inkscape:pageopacity="0.0"
     inkscape:pagecheckerboard="0"
     inkscape:deskcolor="#d1d1d1"
     showguides="true"
     inkscape:zoom="1.2118768"
     inkscape:cx="146.05445"
     inkscape:cy="165.03328"
     inkscape:window-width="1208"
     inkscape:window-height="736"
     inkscape:window-x="72"
     inkscape:window-y="27"
     inkscape:window-maximized="1"
     inkscape:current-layer="g1" />
  <g
     inkscape:groupmode="layer"
     inkscape:label="Image"
     id="g1">
    <circle
       style="fill:#ffffa7;fill-opacity:0.5;stroke:none;stroke-opacity:1"
       id="path5"
       cx="176"
       cy="177"
       r="143.64046" />
    <path
       id="path1"
       style="display:inline;fill:#ff0066;fill-opacity:1;stroke:none;stroke-width:0.979926;stroke-opacity:1"
       d="m 160.72445,45.325492 c -0.64838,0.02771 -1.04102,0.09375 -1.04102,0.09375 -27.32915,0.909477 -21.57421,53.828128 -21.57421,53.828128 4.66369,28.03361 -15.83594,13.73242 -15.83594,13.73242 0,0 -1.33208,-1.246 -1.19922,2.59375 0.12102,3.49766 6.86914,7.93945 6.86914,7.93945 19.63759,9.14251 28.62109,-4.33008 28.62109,-4.33008 8.6734,-15.59262 2.85743,-31.277339 2.85743,-31.277339 l 7.23242,9.980468 0.0625,10.515621 c -2.89788,9.59545 -14.57813,20.77344 -14.57813,20.77344 -25.17436,26.22552 -39.29297,56.66797 -39.29297,56.66797 -3.5994,3.78719 -3.72265,13.62109 -3.72265,13.62109 l 43.05468,57.17774 c -5.39949,5.54581 -13.61523,50.22851 -13.61523,50.22851 27.61561,4.28286 57.37891,-0.35351 57.37891,-0.35351 46.47509,-9.22193 46.88867,-57.25977 46.88867,-57.25977 1.51125,-34.70454 -33.77735,-57.76953 -33.77735,-57.76953 14.60098,-5.35784 10.12696,-22.1875 10.12696,-22.1875 -34.84059,-21.64425 -37.81641,-38.92383 -37.81641,-38.92383 -2.6823,-11.54376 5.04883,-17.3164 5.04883,-17.3164 6.38296,0.88153 5.99028,5.55792 14.83398,6.84179 8.8437,1.28387 6.86524,-7.54882 6.86524,-7.54882 l -0.1211,0.0664 2.42774,-4.22265 c -3.43955,-2.88913 0.97461,-3.51563 0.97461,-3.51563 -1.08771,-5.16809 2.75781,-4.3457 2.75781,-4.3457 4.84688,0.60554 4.14063,-4.300783 4.14063,-4.300783 -9.40595,-7.697606 -4.29883,-14.386719 -4.29883,-14.386719 l 3.53515,0.734375 c 6.9397,-12.894001 -10.7832,-27.037109 -10.7832,-27.037109 -26.17508,-17.367984 -37.10547,-6.367188 -37.10547,-6.367188 -2.73611,-3.468958 -6.96894,-3.735467 -8.91406,-3.652344 z M 144.8514,174.32354 c 0,0 17.15756,28.82105 20.59961,45.45703 l -7.39648,22.92773 -31.69922,-45.78124 c 0,0 10.87261,-19.00696 18.49609,-22.60352 z" />
  </g>
</svg>
