<?xml version="1.0" encoding="UTF-8" standalone="no"?>
<!-- Created with Inkscape (http://www.inkscape.org/) -->

<svg
   width="288.86346mm"
   height="110.01711mm"
   viewBox="0 0 1091.7674 415.81269"
   version="1.1"
   id="svg1"
   inkscape:version="1.3.1 (9b9bdc1480, 2023-11-25, custom)"
   sodipodi:docname="logo.svg"
   xmlns:inkscape="http://www.inkscape.org/namespaces/inkscape"
   xmlns:sodipodi="http://sodipodi.sourceforge.net/DTD/sodipodi-0.dtd"
   xmlns="http://www.w3.org/2000/svg"
   xmlns:svg="http://www.w3.org/2000/svg">
  <sodipodi:namedview
     id="namedview1"
     pagecolor="#ffffff"
     bordercolor="#000000"
     borderopacity="0.25"
     inkscape:showpageshadow="2"
     inkscape:pageopacity="0.0"
     inkscape:pagecheckerboard="0"
     inkscape:deskcolor="#d1d1d1"
     inkscape:document-units="mm"
     inkscape:zoom="0.42760943"
     inkscape:cx="605.69291"
     inkscape:cy="180.07087"
     inkscape:window-width="1208"
     inkscape:window-height="736"
     inkscape:window-x="72"
     inkscape:window-y="27"
     inkscape:window-maximized="1"
     inkscape:current-layer="layer1" />
  <defs
     id="defs1" />
  <g
     inkscape:label="Layer 1"
     inkscape:groupmode="layer"
     id="layer1"
     transform="translate(-12.029104,-218.49625)">
    <g
       id="g3"
       transform="matrix(1.2373357,0,0,1.2373357,-110.48669,-66.710837)">
      <circle
         style="fill:#ffffc1;fill-opacity:1;stroke:none;stroke-width:1.16978;stroke-opacity:1"
         id="path5"
         cx="267.04324"
         cy="398.52841"
         r="168.02744" />
      <path
         id="path1"
         style="display:inline;fill:#ff0066;fill-opacity:1;stroke:none;stroke-width:1.1463;stroke-opacity:1"
         d="m 249.17423,244.49849 c -0.75846,0.0324 -1.21776,0.10967 -1.21776,0.10967 -31.96903,1.06388 -25.23703,62.96695 -25.23703,62.96695 5.45548,32.7931 -18.52454,16.06388 -18.52454,16.06388 0,0 -1.55823,-1.45754 -1.40282,3.03411 0.14157,4.09149 8.03537,9.2874 8.03537,9.2874 22.97162,10.6947 33.48032,-5.06524 33.48032,-5.06524 10.14595,-18.2399 3.34256,-36.58753 3.34256,-36.58753 l 8.46033,11.67493 0.0731,12.30094 c -3.38988,11.22454 -17.05318,24.30031 -17.05318,24.30031 -29.44841,30.67803 -45.96405,66.28893 -45.96405,66.28893 -4.2105,4.43017 -4.35467,15.93365 -4.35467,15.93365 l 50.36441,66.88526 c -6.3162,6.48737 -15.92679,58.7562 -15.92679,58.7562 32.30413,5.01 67.12058,-0.41353 67.12058,-0.41353 54.36553,-10.78761 54.84933,-66.98121 54.84933,-66.98121 1.76783,-40.5966 -39.512,-67.57752 -39.512,-67.57752 17.0799,-6.26748 11.8463,-25.95445 11.8463,-25.95445 -40.75576,-25.31896 -44.23681,-45.53223 -44.23681,-45.53223 -3.13769,-13.50364 5.90601,-20.25634 5.90601,-20.25634 7.46665,1.03119 7.0073,6.50153 17.35247,8.00337 10.34516,1.50184 8.0308,-8.83044 8.0308,-8.83044 l -0.14166,0.0777 2.83992,-4.93956 c -4.02351,-3.37964 1.14008,-4.11251 1.14008,-4.11251 -1.27238,-6.04551 3.22602,-5.0835 3.22602,-5.0835 5.66977,0.70835 4.84362,-5.03096 4.84362,-5.03096 -11.00287,-9.00452 -5.02868,-16.8293 -5.02868,-16.8293 l 4.13534,0.85906 c 8.11792,-15.08312 -12.61394,-31.62741 -12.61394,-31.62741 -30.61903,-20.31669 -43.40515,-7.4482 -43.40515,-7.4482 -3.20065,-4.05791 -8.15212,-4.36966 -10.42748,-4.27243 z m -18.56794,150.89906 c 0,0 20.07054,33.71423 24.09697,53.17463 l -8.65224,26.82035 -37.08105,-53.55388 c 0,0 12.71854,-22.23392 21.63632,-26.4411 z" />
    </g>
    <text
       xml:space="preserve"
       style="font-style:normal;font-variant:normal;font-weight:normal;font-stretch:normal;font-size:118.784px;font-family:'Ubuntu Mono';-inkscape-font-specification:'Ubuntu Mono';fill:#ffffff;stroke-width:1.23734"
       x="452.67337"
       y="397.45071"
       id="text1"><tspan
         sodipodi:role="line"
         id="tspan1"
         x="452.67337"
         y="397.45071"
         style="fill:#ffffff;stroke-width:1.23734">PregnaDrugs</tspan></text>
    <text
       xml:space="preserve"
       style="font-style:normal;font-variant:normal;font-weight:normal;font-stretch:normal;font-size:64.6667px;font-family:'Ubuntu Mono';-inkscape-font-specification:'Ubuntu Mono';fill:#ffffff;stroke-width:1.23734"
       x="456.52725"
       y="483.73718"
       id="text2"><tspan
         sodipodi:role="line"
         id="tspan2"
         x="456.52725"
         y="483.73718"
         style="font-style:normal;font-variant:normal;font-weight:normal;font-stretch:normal;font-size:64.6667px;font-family:AnjaliOldLipi;-inkscape-font-specification:AnjaliOldLipi;fill:#ffffff;stroke-width:1.23734">Pregnancy Safe Drugs</tspan></text>
  </g>
</svg>
